<svg xmlns="http://www.w3.org/2000/svg" width="14.025" height="38.876" viewBox="0 0 14.025 38.876">
  <g id="Group_22967" data-name="Group 22967" transform="translate(2278.271 -1053.094) rotate(90)">
    <path id="Path_14398" data-name="Path 14398" d="M-6.952,10.287a9.107,9.107,0,0,1-7.279-3.731A13.827,13.827,0,0,1-16.406,2.61l1.429-.458,1.427-.462A10.928,10.928,0,0,0-11.83,4.756,6.086,6.086,0,0,0-6.5,7.271c2.676-.185,4.085-1.646,5.87-3.5,1.808-1.874,3.857-4,7.5-4.743,2.74-.559,4.764.765,6.391,1.829a15.24,15.24,0,0,0,1.506.909,5.654,5.654,0,0,0,3.525.412l.774,2.9a8.706,8.706,0,0,1-5.626-.621,17.648,17.648,0,0,1-1.821-1.088c-1.405-.919-2.619-1.713-4.149-1.4-2.734.558-4.293,2.175-5.944,3.887C-.339,7.8-2.461,10-6.288,10.264Q-6.623,10.287-6.952,10.287Z" transform="translate(1069.5 2267.5)" fill="#1e5f4b"/>
    <g id="Group_22256" data-name="Group 22256" transform="translate(1085.767 2266.361)">
      <path id="Line_112" data-name="Line 112" d="M.163,6.884-2.115,4.932l6.04-7.047L6.2-.163Z" transform="translate(0 5.026)" fill="#1e5f4b"/>
      <path id="Line_113" data-name="Line 113" d="M3.925,6.884-2.115-.163.163-2.115,6.2,4.932Z" transform="translate(0 0)" fill="#1e5f4b"/>
    </g>
  </g>
</svg>
