<svg xmlns="http://www.w3.org/2000/svg" width="24" height="24" viewBox="0 0 24 24">
  <g id="leisure" transform="translate(-618 -3348)">
    <rect id="Rectangle_3596" data-name="Rectangle 3596" width="24" height="24" transform="translate(618 3348)" fill="none"/>
    <g id="icon" transform="translate(618 3347.983)">
      <path id="Path_22925" data-name="Path 22925" d="M11.546,20.781a4.089,4.089,0,0,1-2.894-1.19,2.528,2.528,0,0,0-3.707,0,4.089,4.089,0,0,1-2.894,1.19V19.148a2.505,2.505,0,0,0,1.843-.806,4.134,4.134,0,0,1,5.811,0,2.514,2.514,0,0,0,3.691,0,4.1,4.1,0,0,1,2.9-1.191v1.633a2.518,2.518,0,0,0-1.849.808A4.1,4.1,0,0,1,11.546,20.781Z" transform="translate(-0.001 -0.007)" fill="#15233b"/>
      <g id="Group_25309" data-name="Group 25309" transform="translate(0 17.528)">
        <path id="Path_22926" data-name="Path 22926" d="M0,18.08v2.039c.07-.05.13-.11.2-.16a2.516,2.516,0,0,1,1.849-.81V17.53A3.7,3.7,0,0,0,0,18.08Z" transform="translate(0 -17.53)" fill="#15233b"/>
      </g>
      <path id="Path_22927" data-name="Path 22927" d="M24,18.019c-.03-.02-.06-.05-.09-.07a4.127,4.127,0,0,0-5.8,0,2.516,2.516,0,0,1-1.849.81v1.619a4.106,4.106,0,0,0,2.9-1.19,2.517,2.517,0,0,1,3.7,0,6.064,6.064,0,0,0,1.13.8V18.019Z" transform="translate(-0.007 -0.001)" fill="#15233b"/>
      <path id="Path_22928" data-name="Path 22928" d="M23.995,20.76a5.912,5.912,0,0,0-1.16.81,2.517,2.517,0,0,1-3.7,0,4.127,4.127,0,0,0-5.8,0,2.516,2.516,0,0,1-1.849.81V24a4.106,4.106,0,0,0,2.9-1.19,2.528,2.528,0,0,1,3.708,0,4.127,4.127,0,0,0,5.8,0c.04-.03.07-.06.11-.09V20.76Z" transform="translate(-0.005 -0.002)" fill="#15233b"/>
      <g id="Group_25310" data-name="Group 25310" transform="translate(3.512 0.017)">
        <path id="Line_118" data-name="Line 118" d="M.761,10.147-.75,9.529,3.268-.307,4.779.311Z" transform="translate(5.938 9.103)" fill="#15233b"/>
        <path id="Path_22929" data-name="Path 22929" d="M5.791,4.7,4.279,4.086A6.538,6.538,0,0,1,12.79.5l-.616,1.512A4.9,4.9,0,0,0,5.791,4.7Z" transform="translate(-3.52 -0.017)" fill="#15233b"/>
        <path id="Path_22930" data-name="Path 22930" d="M9.331,6.142,7.819,5.526A6.548,6.548,0,0,1,16.35,1.95l-.616,1.512A4.914,4.914,0,0,0,9.331,6.142Z" transform="translate(-3.521 -0.018)" fill="#15233b"/>
        <path id="Path_22931" data-name="Path 22931" d="M8.57,7.993,7.058,7.376a1.09,1.09,0,0,0-.6-1.425,1.1,1.1,0,0,0-1.425.6L3.519,5.937A2.726,2.726,0,1,1,8.57,7.993Z" transform="translate(-3.519 -0.019)" fill="#15233b"/>
        <path id="Path_22932" data-name="Path 22932" d="M12.11,9.443,10.6,8.826A1.094,1.094,0,0,0,8.571,8L7.059,7.387a2.726,2.726,0,0,1,5.05,2.056Z" transform="translate(-3.521 -0.019)" fill="#15233b"/>
        <path id="Path_22933" data-name="Path 22933" d="M23.507,11.92,21.995,11.3A4.895,4.895,0,0,0,19.3,4.922l.614-1.513a6.528,6.528,0,0,1,3.588,8.511Z" transform="translate(-3.523 -0.018)" fill="#15233b"/>
        <path id="Path_22934" data-name="Path 22934" d="M19.947,10.47l-1.512-.616a4.913,4.913,0,0,0-2.7-6.393l.616-1.512A6.547,6.547,0,0,1,19.947,10.47Z" transform="translate(-3.521 -0.017)" fill="#15233b"/>
        <path id="Path_22935" data-name="Path 22935" d="M22.75,13.783l-1.512-.617a1.094,1.094,0,1,0-2.027-.822L17.7,11.727a2.726,2.726,0,1,1,5.05,2.056Z" transform="translate(-3.525 -0.021)" fill="#15233b"/>
        <path id="Path_22936" data-name="Path 22936" d="M19.2,12.333l-1.512-.617a1.094,1.094,0,1,0-2.027-.822l-1.512-.617a2.726,2.726,0,1,1,5.05,2.056Z" transform="translate(-3.524 -0.021)" fill="#15233b"/>
        <path id="Line_119" data-name="Line 119" d="M.76,2.162l-1.51-.62L.01-.308l1.51.62Z" transform="translate(0.751 4.375)" fill="#15233b"/>
        <path id="Line_120" data-name="Line 120" d="M.761,2.17-.75,1.553.009-.307,1.521.311Z" transform="translate(4.289 5.814)" fill="#15233b"/>
        <path id="Line_121" data-name="Line 121" d="M.762,2.167-.752,1.556,0-.3,1.512.307Z" transform="translate(14.915 10.143)" fill="#15233b"/>
        <path id="Line_122" data-name="Line 122" d="M.761,2.17-.75,1.553.009-.307,1.521.311Z" transform="translate(18.463 11.592)" fill="#15233b"/>
        <path id="Line_123" data-name="Line 123" d="M3.233,2.2-.305.762.31-.751,3.848.688Z" transform="translate(8.141 8.36)" fill="#15233b"/>
      </g>
      <path id="Path_22937" data-name="Path 22937" d="M12.069,2.61l4.508.46,2.8,2.249-.57,5.218L16.1,9.467l-2.619-.35L11.5,7.688,8.75,6.368Z" transform="translate(-0.004 0.005)" fill="#15233b"/>
      <path id="Line_124" data-name="Line 124" d="M5.878.822H0V-.811H5.878Z" transform="translate(0 23.171)" fill="#15233b"/>
      <path id="Line_125" data-name="Line 125" d="M5.608.822H0V-.811H5.608Z" transform="translate(5.878 21.571)" fill="#15233b"/>
    </g>
  </g>
</svg>
