<svg xmlns="http://www.w3.org/2000/svg" width="24" height="30" viewBox="0 0 24 30">

      <g id="icon" transform="translate(0 4.323)">
        <path id="Path_22910" data-name="Path 22910" d="M1.08,4.532l.577,1.105,3.365.209.329-.338L9.7,4.622,9.313,3.009,5.769.62,3.4,1.2,1.508,3.238Z" transform="translate(-0.005 -0.072)" fill="#fff"/>
        <g id="Group_25306" data-name="Group 25306" transform="translate(7.638 5.087)">
          <path id="Path_22911" data-name="Path 22911" d="M8.9,9.724,7.672,8.68a4.085,4.085,0,0,1,3.463-1.748,1.694,1.694,0,0,0,1.574-.78,2.15,2.15,0,0,1,1.721-.972V6.793c-.126,0-.182.034-.484.394a3.262,3.262,0,0,1-2.812,1.358A2.54,2.54,0,0,0,8.9,9.724Z" transform="translate(-7.672 -5.179)" fill="#fff"/>
        </g>
        <path id="Path_22912" data-name="Path 22912" d="M5.389,6.328A12.65,12.65,0,0,1,.736,5.593l.346-.75A12.02,12.02,0,0,0,5.389,5.5Z" transform="translate(-0.003 -0.091)" fill="#fff"/>
        <path id="Path_22913" data-name="Path 22913" d="M5.37,5.518V4.692a12.02,12.02,0,0,0,4.307-.659l.346.75A12.65,12.65,0,0,1,5.37,5.518Z" transform="translate(-0.024 -0.087)" fill="#fff"/>
        <path id="Path_22914" data-name="Path 22914" d="M6.254,13.665h-1.8a1.4,1.4,0,0,1-1.387-1.2l-.289-2.07,1.6-.223.263,1.883h1.43l.253-1.841,1.6.219L7.641,12.46A1.4,1.4,0,0,1,6.254,13.665Z" transform="translate(-0.012 -0.114)" fill="#fff"/>
        <path id="Path_22915" data-name="Path 22915" d="M7.089,11.011,6.431,9.537A4.875,4.875,0,0,0,9.019,5.326a3.673,3.673,0,0,0-7.346,0A4.875,4.875,0,0,0,4.262,9.537L3.6,11.011A6.51,6.51,0,0,1,.059,5.326a5.287,5.287,0,0,1,10.574,0A6.51,6.51,0,0,1,7.089,11.011Z" transform="translate(0 -0.069)" fill="#fff"/>
        <path id="Line_117" data-name="Line 117" d="M2.827.721H0V-.728H2.827Z" transform="translate(3.932 10.168)" fill="#fff"/>
        <g id="Group_25307" data-name="Group 25307" transform="translate(17.445 12.818)">
          <rect id="Rectangle_3580" data-name="Rectangle 3580" width="1.613" height="8.512" transform="matrix(0.911, -0.412, 0.412, 0.911, 0, 0.665)" fill="#fff"/>
        </g>
        <path id="Path_22916" data-name="Path 22916" d="M6.841,18.6l-1.288-.972L9.86,11.927a2.272,2.272,0,0,1,3.535,0l0,0,2.638,3.315-1.263,1.005L12.139,12.94a.657.657,0,0,0-1.016-.007Z" transform="translate(-0.025 -0.118)" fill="#fff"/>
        <path id="Path_22917" data-name="Path 22917" d="M7.541,5.034l-.819-.109A4.145,4.145,0,0,0,5.935,1.7,1.021,1.021,0,0,0,5.37,1.3V.475a1.687,1.687,0,0,1,1.186.676A4.863,4.863,0,0,1,7.541,5.034Z" transform="translate(-0.024 -0.071)" fill="#fff"/>
        <path id="Path_22918" data-name="Path 22918" d="M3.433,6.148A5.3,5.3,0,0,1,3.99,1.363a1.874,1.874,0,0,1,1.37-.9v.826c-.113,0-.4.152-.7.562A4.476,4.476,0,0,0,4.221,5.9Z" transform="translate(-0.014 -0.071)" fill="#fff"/>
        <path id="Path_22919" data-name="Path 22919" d="M3.59,10.28l.289,2.071,1.145.577,1.593-.2.319-2.081Z" transform="translate(-0.016 -0.115)" fill="#fff"/>
        <path id="Path_22920" data-name="Path 22920" d="M7.675,23.888l3.106-4.808,3.972-.657.249-2.2-2.24-3.345-1.613-.667L4.2,21.03,2.05,23.888Z" transform="translate(-0.009 -0.124)" fill="#fff"/>
        <g id="Group_25308" data-name="Group 25308" transform="translate(0.846 12.813)">
          <path id="Path_22921" data-name="Path 22921" d="M8.351,23.891l3.116-4.579h3.415l2.588-5.7L16,12.94,13.837,17.7H10.611L6.4,23.891Z" transform="translate(-0.875 -12.94)" fill="#fff"/>
          <path id="Path_22922" data-name="Path 22922" d="M2.871,23.912l3.952-5.276L5.529,17.66.85,23.912Z" transform="translate(-0.85 -12.961)" fill="#fff"/>
        </g>
        <path id="Path_22923" data-name="Path 22923" d="M23.984,23.979l-2.16-4.759-1.463.667,1.852,4.092Z" transform="translate(-0.091 -0.155)" fill="#fff"/>
        <circle id="Ellipse_192" data-name="Ellipse 192" cx="2.3" cy="2.3" r="2.3" transform="translate(17.302 1.932)" fill="#fff"/>
        <path id="Path_22924" data-name="Path 22924" d="M23.305,23.993H0V22.38H22.081Z" transform="translate(0 -0.169)" fill="#fff"/>
      </g>
</svg>
